#define l10_width 14
#define l10_height 16
static char l10_bits[] = {
  0x00, 0x00, 0x00, 0x00, 0x00, 0x00, 0x08, 0x0F, 0x8C, 0x10, 0x8A, 0x18, 
  0x89, 0x14, 0x88, 0x12, 0x88, 0x11, 0x88, 0x10, 0x88, 0x10, 0x08, 0x0F, 
  0x00, 0x00, 0x00, 0x00, 0x00, 0x00, 0x00, 0x00, };
