#define l11_width 14
#define l11_height 16
static char l11_bits[] = {
  0x00, 0x00, 0x00, 0x00, 0x00, 0x00, 0x08, 0x04, 0x0C, 0x06, 0x0A, 0x05, 
  0x89, 0x04, 0x08, 0x04, 0x08, 0x04, 0x08, 0x04, 0x08, 0x04, 0x08, 0x04, 
  0x00, 0x00, 0x00, 0x00, 0x00, 0x00, 0x00, 0x00, };
