#define l12_width 14
#define l12_height 16
static char l12_bits[] = {
  0x00, 0x00, 0x00, 0x00, 0x00, 0x00, 0x08, 0x0F, 0x8C, 0x10, 0x8A, 0x10, 
  0x09, 0x08, 0x08, 0x04, 0x08, 0x02, 0x08, 0x01, 0x88, 0x00, 0x88, 0x1F, 
  0x00, 0x00, 0x00, 0x00, 0x00, 0x00, 0x00, 0x00, };
