#define l13_width 14
#define l13_height 16
static char l13_bits[] = {
  0x00, 0x00, 0x00, 0x00, 0x00, 0x00, 0x08, 0x0F, 0x8C, 0x10, 0x0A, 0x10, 
  0x09, 0x10, 0x08, 0x0E, 0x08, 0x10, 0x08, 0x10, 0x88, 0x10, 0x08, 0x0F, 
  0x00, 0x00, 0x00, 0x00, 0x00, 0x00, 0x00, 0x00, };
