#define l14_width 14
#define l14_height 16
static char l14_bits[] = {
  0x00, 0x00, 0x00, 0x00, 0x00, 0x00, 0x08, 0x08, 0x0C, 0x0C, 0x0A, 0x0A, 
  0x09, 0x09, 0x88, 0x08, 0x88, 0x1F, 0x08, 0x08, 0x08, 0x08, 0x08, 0x08, 
  0x00, 0x00, 0x00, 0x00, 0x00, 0x00, 0x00, 0x00, };
