#define l15_width 14
#define l15_height 16
static char l15_bits[] = {
  0x00, 0x00, 0x00, 0x00, 0x00, 0x00, 0x88, 0x1F, 0x8C, 0x00, 0x8A, 0x00, 
  0x89, 0x0F, 0x08, 0x10, 0x08, 0x10, 0x08, 0x10, 0x88, 0x10, 0x08, 0x0F, 
  0x00, 0x00, 0x00, 0x00, 0x00, 0x00, 0x00, 0x00, };
