#define l16_width 14
#define l16_height 16
static char l16_bits[] = {
  0x00, 0x00, 0x00, 0x00, 0x00, 0x00, 0x08, 0x0F, 0x8C, 0x00, 0x8A, 0x00, 
  0x89, 0x0F, 0x88, 0x10, 0x88, 0x10, 0x88, 0x10, 0x88, 0x10, 0x08, 0x0F, 
  0x00, 0x00, 0x00, 0x00, 0x00, 0x00, 0x00, 0x00, };
