#define l17_width 14
#define l17_height 16
static char l17_bits[] = {
  0x00, 0x00, 0x00, 0x00, 0x00, 0x00, 0x88, 0x1F, 0x0C, 0x10, 0x0A, 0x08, 
  0x09, 0x08, 0x08, 0x04, 0x08, 0x04, 0x08, 0x02, 0x08, 0x02, 0x08, 0x02, 
  0x00, 0x00, 0x00, 0x00, 0x00, 0x00, 0x00, 0x00, };
