#define l18_width 14
#define l18_height 16
static char l18_bits[] = {
  0x00, 0x00, 0x00, 0x00, 0x00, 0x00, 0x08, 0x0F, 0x8C, 0x10, 0x8A, 0x10, 
  0x89, 0x10, 0x08, 0x0F, 0x88, 0x10, 0x88, 0x10, 0x88, 0x10, 0x08, 0x0F, 
  0x00, 0x00, 0x00, 0x00, 0x00, 0x00, 0x00, 0x00, };
