#define l19_width 14
#define l19_height 16
static char l19_bits[] = {
  0x00, 0x00, 0x00, 0x00, 0x00, 0x00, 0x08, 0x0F, 0x8C, 0x10, 0x8A, 0x10, 
  0x89, 0x10, 0x08, 0x1F, 0x08, 0x10, 0x08, 0x10, 0x08, 0x08, 0x08, 0x07, 
  0x00, 0x00, 0x00, 0x00, 0x00, 0x00, 0x00, 0x00, };
