#define l20_width 14
#define l20_height 16
static char l20_bits[] = {
  0x00, 0x00, 0x00, 0x00, 0x00, 0x00, 0x1E, 0x0F, 0xA1, 0x10, 0xA1, 0x18, 
  0x90, 0x14, 0x88, 0x12, 0x84, 0x11, 0x82, 0x10, 0x81, 0x10, 0x3F, 0x0F, 
  0x00, 0x00, 0x00, 0x00, 0x00, 0x00, 0x00, 0x00, };
