#define l21_width 14
#define l21_height 16
static char l21_bits[] = {
  0x00, 0x00, 0x00, 0x00, 0x00, 0x00, 0x1E, 0x04, 0x21, 0x06, 0x21, 0x05, 
  0x90, 0x04, 0x08, 0x04, 0x04, 0x04, 0x02, 0x04, 0x01, 0x04, 0x3F, 0x04, 
  0x00, 0x00, 0x00, 0x00, 0x00, 0x00, 0x00, 0x00, };
