#define l22_width 14
#define l22_height 16
static char l22_bits[] = {
  0x00, 0x00, 0x00, 0x00, 0x00, 0x00, 0x1E, 0x0F, 0xA1, 0x10, 0xA1, 0x10, 
  0x10, 0x08, 0x08, 0x04, 0x04, 0x02, 0x02, 0x01, 0x81, 0x00, 0xBF, 0x1F, 
  0x00, 0x00, 0x00, 0x00, 0x00, 0x00, 0x00, 0x00, };
