#define l23_width 14
#define l23_height 16
static char l23_bits[] = {
  0x00, 0x00, 0x00, 0x00, 0x00, 0x00, 0x1E, 0x0F, 0xA1, 0x10, 0x21, 0x10, 
  0x10, 0x10, 0x08, 0x0E, 0x04, 0x10, 0x02, 0x10, 0x81, 0x10, 0x3F, 0x0F, 
  0x00, 0x00, 0x00, 0x00, 0x00, 0x00, 0x00, 0x00, };
