#define l24_width 14
#define l24_height 16
static char l24_bits[] = {
  0x00, 0x00, 0x00, 0x00, 0x00, 0x00, 0x1E, 0x08, 0x21, 0x0C, 0x21, 0x0A, 
  0x10, 0x09, 0x88, 0x08, 0x84, 0x1F, 0x02, 0x08, 0x01, 0x08, 0x3F, 0x08, 
  0x00, 0x00, 0x00, 0x00, 0x00, 0x00, 0x00, 0x00, };
