#define l25_width 14
#define l25_height 16
static char l25_bits[] = {
  0x00, 0x00, 0x00, 0x00, 0x00, 0x00, 0x9E, 0x1F, 0xA1, 0x00, 0xA1, 0x00, 
  0x90, 0x0F, 0x08, 0x10, 0x04, 0x10, 0x02, 0x10, 0x81, 0x10, 0x3F, 0x0F, 
  0x00, 0x00, 0x00, 0x00, 0x00, 0x00, 0x00, 0x00, };
