#define l26_width 14
#define l26_height 16
static char l26_bits[] = {
  0x00, 0x00, 0x00, 0x00, 0x00, 0x00, 0x1E, 0x0F, 0xA1, 0x00, 0xA1, 0x00, 
  0x90, 0x0F, 0x88, 0x10, 0x84, 0x10, 0x82, 0x10, 0x81, 0x10, 0x3F, 0x0F, 
  0x00, 0x00, 0x00, 0x00, 0x00, 0x00, 0x00, 0x00, };
