#define l27_width 14
#define l27_height 16
static char l27_bits[] = {
  0x00, 0x00, 0x00, 0x00, 0x00, 0x00, 0x9E, 0x1F, 0x21, 0x10, 0x21, 0x08, 
  0x10, 0x08, 0x08, 0x04, 0x04, 0x04, 0x02, 0x02, 0x01, 0x02, 0x3F, 0x02, 
  0x00, 0x00, 0x00, 0x00, 0x00, 0x00, 0x00, 0x00, };
