#define l28_width 14
#define l28_height 16
static char l28_bits[] = {
  0x00, 0x00, 0x00, 0x00, 0x00, 0x00, 0x1E, 0x0F, 0xA1, 0x10, 0xA1, 0x10, 
  0x90, 0x10, 0x08, 0x0F, 0x84, 0x10, 0x82, 0x10, 0x81, 0x10, 0x3F, 0x0F, 
  0x00, 0x00, 0x00, 0x00, 0x00, 0x00, 0x00, 0x00, };
