#define l29_width 14
#define l29_height 16
static char l29_bits[] = {
  0x00, 0x00, 0x00, 0x00, 0x00, 0x00, 0x1E, 0x0F, 0xA1, 0x10, 0xA1, 0x10, 
  0x90, 0x10, 0x08, 0x1F, 0x04, 0x10, 0x02, 0x10, 0x01, 0x08, 0x3F, 0x07, 
  0x00, 0x00, 0x00, 0x00, 0x00, 0x00, 0x00, 0x00, };
