#define l3_width 14
#define l3_height 16
static char l3_bits[] = {
  0x00, 0x00, 0x00, 0x00, 0x00, 0x00, 0xF0, 0x00, 0x08, 0x01, 0x00, 0x01, 
  0x00, 0x01, 0xE0, 0x00, 0x00, 0x01, 0x00, 0x01, 0x08, 0x01, 0xF0, 0x00, 
  0x00, 0x00, 0x00, 0x00, 0x00, 0x00, 0x00, 0x00, };
