#define l30_width 14
#define l30_height 16
static char l30_bits[] = {
  0x00, 0x00, 0x00, 0x00, 0x00, 0x00, 0x1E, 0x0F, 0xA1, 0x10, 0xA0, 0x18, 
  0xA0, 0x14, 0x9C, 0x12, 0xA0, 0x11, 0xA0, 0x10, 0xA1, 0x10, 0x1E, 0x0F, 
  0x00, 0x00, 0x00, 0x00, 0x00, 0x00, 0x00, 0x00, };
