#define l31_width 14
#define l31_height 16
static char l31_bits[] = {
  0x00, 0x00, 0x00, 0x00, 0x00, 0x00, 0x1E, 0x04, 0x21, 0x06, 0x20, 0x05, 
  0xA0, 0x04, 0x1C, 0x04, 0x20, 0x04, 0x20, 0x04, 0x21, 0x04, 0x1E, 0x04, 
  0x00, 0x00, 0x00, 0x00, 0x00, 0x00, 0x00, 0x00, };
