#define l32_width 14
#define l32_height 16
static char l32_bits[] = {
  0x00, 0x00, 0x00, 0x00, 0x00, 0x00, 0x1E, 0x0F, 0xA1, 0x10, 0xA0, 0x10, 
  0x20, 0x08, 0x1C, 0x04, 0x20, 0x02, 0x20, 0x01, 0xA1, 0x00, 0x9E, 0x1F, 
  0x00, 0x00, 0x00, 0x00, 0x00, 0x00, 0x00, 0x00, };
