#define l33_width 14
#define l33_height 16
static char l33_bits[] = {
  0x00, 0x00, 0x00, 0x00, 0x00, 0x00, 0x1E, 0x0F, 0xA1, 0x10, 0x20, 0x10, 
  0x20, 0x10, 0x1C, 0x0E, 0x20, 0x10, 0x20, 0x10, 0xA1, 0x10, 0x1E, 0x0F, 
  0x00, 0x00, 0x00, 0x00, 0x00, 0x00, 0x00, 0x00, };
