#define l34_width 14
#define l34_height 16
static char l34_bits[] = {
  0x00, 0x00, 0x00, 0x00, 0x00, 0x00, 0x1E, 0x08, 0x21, 0x0C, 0x20, 0x0A, 
  0x20, 0x09, 0x9C, 0x08, 0xA0, 0x1F, 0x20, 0x08, 0x21, 0x08, 0x1E, 0x08, 
  0x00, 0x00, 0x00, 0x00, 0x00, 0x00, 0x00, 0x00, };
