#define l35_width 14
#define l35_height 16
static char l35_bits[] = {
  0x00, 0x00, 0x00, 0x00, 0x00, 0x00, 0x9E, 0x1F, 0xA1, 0x00, 0xA0, 0x00, 
  0xA0, 0x0F, 0x1C, 0x10, 0x20, 0x10, 0x20, 0x10, 0xA1, 0x10, 0x1E, 0x0F, 
  0x00, 0x00, 0x00, 0x00, 0x00, 0x00, 0x00, 0x00, };
