#define l36_width 14
#define l36_height 16
static char l36_bits[] = {
  0x00, 0x00, 0x00, 0x00, 0x00, 0x00, 0x1E, 0x0F, 0xA1, 0x00, 0xA0, 0x00, 
  0xA0, 0x0F, 0x9C, 0x10, 0xA0, 0x10, 0xA0, 0x10, 0xA1, 0x10, 0x1E, 0x0F, 
  0x00, 0x00, 0x00, 0x00, 0x00, 0x00, 0x00, 0x00, };
