#define l37_width 14
#define l37_height 16
static char l37_bits[] = {
  0x00, 0x00, 0x00, 0x00, 0x00, 0x00, 0x9E, 0x1F, 0x21, 0x10, 0x20, 0x08, 
  0x20, 0x08, 0x1C, 0x04, 0x20, 0x04, 0x20, 0x02, 0x21, 0x02, 0x1E, 0x02, 
  0x00, 0x00, 0x00, 0x00, 0x00, 0x00, 0x00, 0x00, };
