#define l38_width 14
#define l38_height 16
static char l38_bits[] = {
  0x00, 0x00, 0x00, 0x00, 0x00, 0x00, 0x1E, 0x0F, 0xA1, 0x10, 0xA0, 0x10, 
  0xA0, 0x10, 0x1C, 0x0F, 0xA0, 0x10, 0xA0, 0x10, 0xA1, 0x10, 0x1E, 0x0F, 
  0x00, 0x00, 0x00, 0x00, 0x00, 0x00, 0x00, 0x00, };
