#define l39_width 14
#define l39_height 16
static char l39_bits[] = {
  0x00, 0x00, 0x00, 0x00, 0x00, 0x00, 0x1E, 0x0F, 0xA1, 0x10, 0xA0, 0x10, 
  0xA0, 0x10, 0x1C, 0x1F, 0x20, 0x10, 0x20, 0x10, 0x21, 0x08, 0x1E, 0x07, 
  0x00, 0x00, 0x00, 0x00, 0x00, 0x00, 0x00, 0x00, };
