#define l4_width 14
#define l4_height 16
static char l4_bits[] = {
  0x00, 0x00, 0x00, 0x00, 0x00, 0x00, 0x80, 0x00, 0xC0, 0x00, 0xA0, 0x00, 
  0x90, 0x00, 0x88, 0x00, 0xF8, 0x01, 0x80, 0x00, 0x80, 0x00, 0x80, 0x00, 
  0x00, 0x00, 0x00, 0x00, 0x00, 0x00, 0x00, 0x00, };
