#define l40_width 14
#define l40_height 16
static char l40_bits[] = {
  0x00, 0x00, 0x00, 0x00, 0x00, 0x00, 0x10, 0x0F, 0x98, 0x10, 0x94, 0x18, 
  0x92, 0x14, 0x91, 0x12, 0xBF, 0x11, 0x90, 0x10, 0x90, 0x10, 0x10, 0x0F, 
  0x00, 0x00, 0x00, 0x00, 0x00, 0x00, 0x00, 0x00, };
