#define l41_width 14
#define l41_height 16
static char l41_bits[] = {
  0x00, 0x00, 0x00, 0x00, 0x00, 0x00, 0x10, 0x04, 0x18, 0x06, 0x14, 0x05, 
  0x92, 0x04, 0x11, 0x04, 0x3F, 0x04, 0x10, 0x04, 0x10, 0x04, 0x10, 0x04, 
  0x00, 0x00, 0x00, 0x00, 0x00, 0x00, 0x00, 0x00, };
