#define l42_width 14
#define l42_height 16
static char l42_bits[] = {
  0x00, 0x00, 0x00, 0x00, 0x00, 0x00, 0x10, 0x0F, 0x98, 0x10, 0x94, 0x10, 
  0x12, 0x08, 0x11, 0x04, 0x3F, 0x02, 0x10, 0x01, 0x90, 0x00, 0x90, 0x1F, 
  0x00, 0x00, 0x00, 0x00, 0x00, 0x00, 0x00, 0x00, };
