#define l43_width 14
#define l43_height 16
static char l43_bits[] = {
  0x00, 0x00, 0x00, 0x00, 0x00, 0x00, 0x10, 0x0F, 0x98, 0x10, 0x14, 0x10, 
  0x12, 0x10, 0x11, 0x0E, 0x3F, 0x10, 0x10, 0x10, 0x90, 0x10, 0x10, 0x0F, 
  0x00, 0x00, 0x00, 0x00, 0x00, 0x00, 0x00, 0x00, };
