#define l44_width 14
#define l44_height 16
static char l44_bits[] = {
  0x00, 0x00, 0x00, 0x00, 0x00, 0x00, 0x10, 0x08, 0x18, 0x0C, 0x14, 0x0A, 
  0x12, 0x09, 0x91, 0x08, 0xBF, 0x1F, 0x10, 0x08, 0x10, 0x08, 0x10, 0x08, 
  0x00, 0x00, 0x00, 0x00, 0x00, 0x00, 0x00, 0x00, };
