#define l45_width 14
#define l45_height 16
static char l45_bits[] = {
  0x00, 0x00, 0x00, 0x00, 0x00, 0x00, 0x90, 0x1F, 0x98, 0x00, 0x94, 0x00, 
  0x92, 0x0F, 0x11, 0x10, 0x3F, 0x10, 0x10, 0x10, 0x90, 0x10, 0x10, 0x0F, 
  0x00, 0x00, 0x00, 0x00, 0x00, 0x00, 0x00, 0x00, };
