#define l46_width 14
#define l46_height 16
static char l46_bits[] = {
  0x00, 0x00, 0x00, 0x00, 0x00, 0x00, 0x10, 0x0F, 0x98, 0x00, 0x94, 0x00, 
  0x92, 0x0F, 0x91, 0x10, 0xBF, 0x10, 0x90, 0x10, 0x90, 0x10, 0x10, 0x0F, 
  0x00, 0x00, 0x00, 0x00, 0x00, 0x00, 0x00, 0x00, };
