#define l47_width 14
#define l47_height 16
static char l47_bits[] = {
  0x00, 0x00, 0x00, 0x00, 0x00, 0x00, 0x90, 0x1F, 0x18, 0x10, 0x14, 0x08, 
  0x12, 0x08, 0x11, 0x04, 0x3F, 0x04, 0x10, 0x02, 0x10, 0x02, 0x10, 0x02, 
  0x00, 0x00, 0x00, 0x00, 0x00, 0x00, 0x00, 0x00, };
