#define l48_width 14
#define l48_height 16
static char l48_bits[] = {
  0x00, 0x00, 0x00, 0x00, 0x00, 0x00, 0x10, 0x0F, 0x98, 0x10, 0x94, 0x10, 
  0x92, 0x10, 0x11, 0x0F, 0xBF, 0x10, 0x90, 0x10, 0x90, 0x10, 0x10, 0x0F, 
  0x00, 0x00, 0x00, 0x00, 0x00, 0x00, 0x00, 0x00, };
