#define l49_width 14
#define l49_height 16
static char l49_bits[] = {
  0x00, 0x00, 0x00, 0x00, 0x00, 0x00, 0x10, 0x0F, 0x98, 0x10, 0x94, 0x10, 
  0x92, 0x10, 0x11, 0x1F, 0x3F, 0x10, 0x10, 0x10, 0x10, 0x08, 0x10, 0x07, 
  0x00, 0x00, 0x00, 0x00, 0x00, 0x00, 0x00, 0x00, };
