#define l5_width 14
#define l5_height 16
static char l5_bits[] = {
  0x00, 0x00, 0x00, 0x00, 0x00, 0x00, 0xF8, 0x01, 0x08, 0x00, 0x08, 0x00, 
  0xF8, 0x00, 0x00, 0x01, 0x00, 0x01, 0x00, 0x01, 0x08, 0x01, 0xF0, 0x00, 
  0x00, 0x00, 0x00, 0x00, 0x00, 0x00, 0x00, 0x00, };
