#define l50_width 14
#define l50_height 16
static char l50_bits[] = {
  0x00, 0x00, 0x00, 0x00, 0x00, 0x00, 0x3F, 0x0F, 0x81, 0x10, 0x81, 0x18, 
  0x9F, 0x14, 0xA0, 0x12, 0xA0, 0x11, 0xA0, 0x10, 0xA1, 0x10, 0x1E, 0x0F, 
  0x00, 0x00, 0x00, 0x00, 0x00, 0x00, 0x00, 0x00, };
