#define l51_width 14
#define l51_height 16
static char l51_bits[] = {
  0x00, 0x00, 0x00, 0x00, 0x00, 0x00, 0x3F, 0x04, 0x01, 0x06, 0x01, 0x05, 
  0x9F, 0x04, 0x20, 0x04, 0x20, 0x04, 0x20, 0x04, 0x21, 0x04, 0x1E, 0x04, 
  0x00, 0x00, 0x00, 0x00, 0x00, 0x00, 0x00, 0x00, };
