#define l52_width 14
#define l52_height 16
static char l52_bits[] = {
  0x00, 0x00, 0x00, 0x00, 0x00, 0x00, 0x3F, 0x0F, 0x81, 0x10, 0x81, 0x10, 
  0x1F, 0x08, 0x20, 0x04, 0x20, 0x02, 0x20, 0x01, 0xA1, 0x00, 0x9E, 0x1F, 
  0x00, 0x00, 0x00, 0x00, 0x00, 0x00, 0x00, 0x00, };
