#define l54_width 14
#define l54_height 16
static char l54_bits[] = {
  0x00, 0x00, 0x00, 0x00, 0x00, 0x00, 0x3F, 0x08, 0x01, 0x0C, 0x01, 0x0A, 
  0x1F, 0x09, 0xA0, 0x08, 0xA0, 0x1F, 0x20, 0x08, 0x21, 0x08, 0x1E, 0x08, 
  0x00, 0x00, 0x00, 0x00, 0x00, 0x00, 0x00, 0x00, };
