#define l55_width 14
#define l55_height 16
static char l55_bits[] = {
  0x00, 0x00, 0x00, 0x00, 0x00, 0x00, 0xBF, 0x1F, 0x81, 0x00, 0x81, 0x00, 
  0x9F, 0x0F, 0x20, 0x10, 0x20, 0x10, 0x20, 0x10, 0xA1, 0x10, 0x1E, 0x0F, 
  0x00, 0x00, 0x00, 0x00, 0x00, 0x00, 0x00, 0x00, };
