#define l56_width 14
#define l56_height 16
static char l56_bits[] = {
  0x00, 0x00, 0x00, 0x00, 0x00, 0x00, 0x3F, 0x0F, 0x81, 0x00, 0x81, 0x00, 
  0x9F, 0x0F, 0xA0, 0x10, 0xA0, 0x10, 0xA0, 0x10, 0xA1, 0x10, 0x1E, 0x0F, 
  0x00, 0x00, 0x00, 0x00, 0x00, 0x00, 0x00, 0x00, };
