#define l59_width 14
#define l59_height 16
static char l59_bits[] = {
  0x00, 0x00, 0x00, 0x00, 0x00, 0x00, 0x3F, 0x0F, 0x81, 0x10, 0x81, 0x10, 
  0x9F, 0x10, 0x20, 0x1F, 0x20, 0x10, 0x20, 0x10, 0x21, 0x08, 0x1E, 0x07, 
  0x00, 0x00, 0x00, 0x00, 0x00, 0x00, 0x00, 0x00, };
