#define l60_width 14
#define l60_height 16
static char l60_bits[] = {
  0x00, 0x00, 0x00, 0x00, 0x00, 0x00, 0x1E, 0x0F, 0x81, 0x10, 0x81, 0x18, 
  0x9F, 0x14, 0xA1, 0x12, 0xA1, 0x11, 0xA1, 0x10, 0xA1, 0x10, 0x1E, 0x0F, 
  0x00, 0x00, 0x00, 0x00, 0x00, 0x00, 0x00, 0x00, };
