#define l62_width 14
#define l62_height 16
static char l62_bits[] = {
  0x00, 0x00, 0x00, 0x00, 0x00, 0x00, 0x1E, 0x0F, 0x81, 0x10, 0x81, 0x10, 
  0x1F, 0x08, 0x21, 0x04, 0x21, 0x02, 0x21, 0x01, 0xA1, 0x00, 0x9E, 0x1F, 
  0x00, 0x00, 0x00, 0x00, 0x00, 0x00, 0x00, 0x00, };
