#define l63_width 14
#define l63_height 16
static char l63_bits[] = {
  0x00, 0x00, 0x00, 0x00, 0x00, 0x00, 0x1E, 0x0F, 0x81, 0x10, 0x01, 0x10, 
  0x1F, 0x10, 0x21, 0x0E, 0x21, 0x10, 0x21, 0x10, 0xA1, 0x10, 0x1E, 0x0F, 
  0x00, 0x00, 0x00, 0x00, 0x00, 0x00, 0x00, 0x00, };
