#define l64_width 14
#define l64_height 16
static char l64_bits[] = {
  0x00, 0x00, 0x00, 0x00, 0x00, 0x00, 0x1E, 0x08, 0x01, 0x0C, 0x01, 0x0A, 
  0x1F, 0x09, 0xA1, 0x08, 0xA1, 0x1F, 0x21, 0x08, 0x21, 0x08, 0x1E, 0x08, 
  0x00, 0x00, 0x00, 0x00, 0x00, 0x00, 0x00, 0x00, };
