#define l65_width 14
#define l65_height 16
static char l65_bits[] = {
  0x00, 0x00, 0x00, 0x00, 0x00, 0x00, 0x9E, 0x1F, 0x81, 0x00, 0x81, 0x00, 
  0x9F, 0x0F, 0x21, 0x10, 0x21, 0x10, 0x21, 0x10, 0xA1, 0x10, 0x1E, 0x0F, 
  0x00, 0x00, 0x00, 0x00, 0x00, 0x00, 0x00, 0x00, };
