#define l66_width 14
#define l66_height 16
static char l66_bits[] = {
  0x00, 0x00, 0x00, 0x00, 0x00, 0x00, 0x1E, 0x0F, 0x81, 0x00, 0x81, 0x00, 
  0x9F, 0x0F, 0xA1, 0x10, 0xA1, 0x10, 0xA1, 0x10, 0xA1, 0x10, 0x1E, 0x0F, 
  0x00, 0x00, 0x00, 0x00, 0x00, 0x00, 0x00, 0x00, };
