#define l67_width 14
#define l67_height 16
static char l67_bits[] = {
  0x00, 0x00, 0x00, 0x00, 0x00, 0x00, 0x9E, 0x1F, 0x01, 0x10, 0x01, 0x08, 
  0x1F, 0x08, 0x21, 0x04, 0x21, 0x04, 0x21, 0x02, 0x21, 0x02, 0x1E, 0x02, 
  0x00, 0x00, 0x00, 0x00, 0x00, 0x00, 0x00, 0x00, };
