#define l68_width 14
#define l68_height 16
static char l68_bits[] = {
  0x00, 0x00, 0x00, 0x00, 0x00, 0x00, 0x1E, 0x0F, 0x81, 0x10, 0x81, 0x10, 
  0x9F, 0x10, 0x21, 0x0F, 0xA1, 0x10, 0xA1, 0x10, 0xA1, 0x10, 0x1E, 0x0F, 
  0x00, 0x00, 0x00, 0x00, 0x00, 0x00, 0x00, 0x00, };
