#define l69_width 14
#define l69_height 16
static char l69_bits[] = {
  0x00, 0x00, 0x00, 0x00, 0x00, 0x00, 0x1E, 0x0F, 0x81, 0x10, 0x81, 0x10, 
  0x9F, 0x10, 0x21, 0x1F, 0x21, 0x10, 0x21, 0x10, 0x21, 0x08, 0x1E, 0x07, 
  0x00, 0x00, 0x00, 0x00, 0x00, 0x00, 0x00, 0x00, };
