#define l70_width 14
#define l70_height 16
static char l70_bits[] = {
  0x00, 0x00, 0x00, 0x00, 0x00, 0x00, 0x3F, 0x0F, 0xA0, 0x10, 0x90, 0x18, 
  0x90, 0x14, 0x88, 0x12, 0x88, 0x11, 0x84, 0x10, 0x84, 0x10, 0x04, 0x0F, 
  0x00, 0x00, 0x00, 0x00, 0x00, 0x00, 0x00, 0x00, };
