#define l71_width 14
#define l71_height 16
static char l71_bits[] = {
  0x00, 0x00, 0x00, 0x00, 0x00, 0x00, 0x3F, 0x04, 0x20, 0x06, 0x10, 0x05, 
  0x90, 0x04, 0x08, 0x04, 0x08, 0x04, 0x04, 0x04, 0x04, 0x04, 0x04, 0x04, 
  0x00, 0x00, 0x00, 0x00, 0x00, 0x00, 0x00, 0x00, };
