#define l72_width 14
#define l72_height 16
static char l72_bits[] = {
  0x00, 0x00, 0x00, 0x00, 0x00, 0x00, 0x3F, 0x0F, 0xA0, 0x10, 0x90, 0x10, 
  0x10, 0x08, 0x08, 0x04, 0x08, 0x02, 0x04, 0x01, 0x84, 0x00, 0x84, 0x1F, 
  0x00, 0x00, 0x00, 0x00, 0x00, 0x00, 0x00, 0x00, };
