#define l73_width 14
#define l73_height 16
static char l73_bits[] = {
  0x00, 0x00, 0x00, 0x00, 0x00, 0x00, 0x3F, 0x0F, 0xA0, 0x10, 0x10, 0x10, 
  0x10, 0x10, 0x08, 0x0E, 0x08, 0x10, 0x04, 0x10, 0x84, 0x10, 0x04, 0x0F, 
  0x00, 0x00, 0x00, 0x00, 0x00, 0x00, 0x00, 0x00, };
