#define l74_width 14
#define l74_height 16
static char l74_bits[] = {
  0x00, 0x00, 0x00, 0x00, 0x00, 0x00, 0x3F, 0x08, 0x20, 0x0C, 0x10, 0x0A, 
  0x10, 0x09, 0x88, 0x08, 0x88, 0x1F, 0x04, 0x08, 0x04, 0x08, 0x04, 0x08, 
  0x00, 0x00, 0x00, 0x00, 0x00, 0x00, 0x00, 0x00, };
