#define l75_width 14
#define l75_height 16
static char l75_bits[] = {
  0x00, 0x00, 0x00, 0x00, 0x00, 0x00, 0xBF, 0x1F, 0xA0, 0x00, 0x90, 0x00, 
  0x90, 0x0F, 0x08, 0x10, 0x08, 0x10, 0x04, 0x10, 0x84, 0x10, 0x04, 0x0F, 
  0x00, 0x00, 0x00, 0x00, 0x00, 0x00, 0x00, 0x00, };
