#define l76_width 14
#define l76_height 16
static char l76_bits[] = {
  0x00, 0x00, 0x00, 0x00, 0x00, 0x00, 0x3F, 0x0F, 0xA0, 0x00, 0x90, 0x00, 
  0x90, 0x0F, 0x88, 0x10, 0x88, 0x10, 0x84, 0x10, 0x84, 0x10, 0x04, 0x0F, 
  0x00, 0x00, 0x00, 0x00, 0x00, 0x00, 0x00, 0x00, };
