#define l77_width 14
#define l77_height 16
static char l77_bits[] = {
  0x00, 0x00, 0x00, 0x00, 0x00, 0x00, 0xBF, 0x1F, 0x20, 0x10, 0x10, 0x08, 
  0x10, 0x08, 0x08, 0x04, 0x08, 0x04, 0x04, 0x02, 0x04, 0x02, 0x04, 0x02, 
  0x00, 0x00, 0x00, 0x00, 0x00, 0x00, 0x00, 0x00, };
