#define l78_width 14
#define l78_height 16
static char l78_bits[] = {
  0x00, 0x00, 0x00, 0x00, 0x00, 0x00, 0x3F, 0x0F, 0xA0, 0x10, 0x90, 0x10, 
  0x90, 0x10, 0x08, 0x0F, 0x88, 0x10, 0x84, 0x10, 0x84, 0x10, 0x04, 0x0F, 
  0x00, 0x00, 0x00, 0x00, 0x00, 0x00, 0x00, 0x00, };
