#define l79_width 14
#define l79_height 16
static char l79_bits[] = {
  0x00, 0x00, 0x00, 0x00, 0x00, 0x00, 0x3F, 0x0F, 0xA0, 0x10, 0x90, 0x10, 
  0x90, 0x10, 0x08, 0x1F, 0x08, 0x10, 0x04, 0x10, 0x04, 0x08, 0x04, 0x07, 
  0x00, 0x00, 0x00, 0x00, 0x00, 0x00, 0x00, 0x00, };
