#define l8_width 14
#define l8_height 16
static char l8_bits[] = {
  0x00, 0x00, 0x00, 0x00, 0x00, 0x00, 0xF0, 0x00, 0x08, 0x01, 0x08, 0x01, 
  0x08, 0x01, 0xF0, 0x00, 0x08, 0x01, 0x08, 0x01, 0x08, 0x01, 0xF0, 0x00, 
  0x00, 0x00, 0x00, 0x00, 0x00, 0x00, 0x00, 0x00, };
