#define l80_width 14
#define l80_height 16
static char l80_bits[] = {
  0x00, 0x00, 0x00, 0x00, 0x00, 0x00, 0x1E, 0x0F, 0xA1, 0x10, 0xA1, 0x18, 
  0xA1, 0x14, 0x9E, 0x12, 0xA1, 0x11, 0xA1, 0x10, 0xA1, 0x10, 0x1E, 0x0F, 
  0x00, 0x00, 0x00, 0x00, 0x00, 0x00, 0x00, 0x00, };
