#define l81_width 14
#define l81_height 16
static char l81_bits[] = {
  0x00, 0x00, 0x00, 0x00, 0x00, 0x00, 0x1E, 0x04, 0x21, 0x06, 0x21, 0x05, 
  0xA1, 0x04, 0x1E, 0x04, 0x21, 0x04, 0x21, 0x04, 0x21, 0x04, 0x1E, 0x04, 
  0x00, 0x00, 0x00, 0x00, 0x00, 0x00, 0x00, 0x00, };
