#define l82_width 14
#define l82_height 16
static char l82_bits[] = {
  0x00, 0x00, 0x00, 0x00, 0x00, 0x00, 0x1E, 0x0F, 0xA1, 0x10, 0xA1, 0x10, 
  0x21, 0x08, 0x1E, 0x04, 0x21, 0x02, 0x21, 0x01, 0xA1, 0x00, 0x9E, 0x1F, 
  0x00, 0x00, 0x00, 0x00, 0x00, 0x00, 0x00, 0x00, };
