#define l83_width 14
#define l83_height 16
static char l83_bits[] = {
  0x00, 0x00, 0x00, 0x00, 0x00, 0x00, 0x1E, 0x0F, 0xA1, 0x10, 0x21, 0x10, 
  0x21, 0x10, 0x1E, 0x0E, 0x21, 0x10, 0x21, 0x10, 0xA1, 0x10, 0x1E, 0x0F, 
  0x00, 0x00, 0x00, 0x00, 0x00, 0x00, 0x00, 0x00, };
