#define l84_width 14
#define l84_height 16
static char l84_bits[] = {
  0x00, 0x00, 0x00, 0x00, 0x00, 0x00, 0x1E, 0x08, 0x21, 0x0C, 0x21, 0x0A, 
  0x21, 0x09, 0x9E, 0x08, 0xA1, 0x1F, 0x21, 0x08, 0x21, 0x08, 0x1E, 0x08, 
  0x00, 0x00, 0x00, 0x00, 0x00, 0x00, 0x00, 0x00, };
