#define l86_width 14
#define l86_height 16
static char l86_bits[] = {
  0x00, 0x00, 0x00, 0x00, 0x00, 0x00, 0x1E, 0x0F, 0xA1, 0x00, 0xA1, 0x00, 
  0xA1, 0x0F, 0x9E, 0x10, 0xA1, 0x10, 0xA1, 0x10, 0xA1, 0x10, 0x1E, 0x0F, 
  0x00, 0x00, 0x00, 0x00, 0x00, 0x00, 0x00, 0x00, };
