#define l87_width 14
#define l87_height 16
static char l87_bits[] = {
  0x00, 0x00, 0x00, 0x00, 0x00, 0x00, 0x9E, 0x1F, 0x21, 0x10, 0x21, 0x08, 
  0x21, 0x08, 0x1E, 0x04, 0x21, 0x04, 0x21, 0x02, 0x21, 0x02, 0x1E, 0x02, 
  0x00, 0x00, 0x00, 0x00, 0x00, 0x00, 0x00, 0x00, };
