#define l88_width 14
#define l88_height 16
static char l88_bits[] = {
  0x00, 0x00, 0x00, 0x00, 0x00, 0x00, 0x1E, 0x0F, 0xA1, 0x10, 0xA1, 0x10, 
  0xA1, 0x10, 0x1E, 0x0F, 0xA1, 0x10, 0xA1, 0x10, 0xA1, 0x10, 0x1E, 0x0F, 
  0x00, 0x00, 0x00, 0x00, 0x00, 0x00, 0x00, 0x00, };
