#define l9_width 14
#define l9_height 16
static char l9_bits[] = {
  0x00, 0x00, 0x00, 0x00, 0x00, 0x00, 0xF0, 0x00, 0x08, 0x01, 0x08, 0x01, 
  0x08, 0x01, 0xF0, 0x01, 0x00, 0x01, 0x00, 0x01, 0x80, 0x00, 0x70, 0x00, 
  0x00, 0x00, 0x00, 0x00, 0x00, 0x00, 0x00, 0x00, };
