#define l90_width 14
#define l90_height 16
static char l90_bits[] = {
  0x00, 0x00, 0x00, 0x00, 0x00, 0x00, 0x1E, 0x0F, 0xA1, 0x10, 0xA1, 0x18, 
  0xA1, 0x14, 0xBE, 0x12, 0xA0, 0x11, 0xA0, 0x10, 0x90, 0x10, 0x0E, 0x0F, 
  0x00, 0x00, 0x00, 0x00, 0x00, 0x00, 0x00, 0x00, };
