#define l91_width 14
#define l91_height 16
static char l91_bits[] = {
  0x00, 0x00, 0x00, 0x00, 0x00, 0x00, 0x1E, 0x04, 0x21, 0x06, 0x21, 0x05, 
  0xA1, 0x04, 0x3E, 0x04, 0x20, 0x04, 0x20, 0x04, 0x10, 0x04, 0x0E, 0x04, 
  0x00, 0x00, 0x00, 0x00, 0x00, 0x00, 0x00, 0x00, };
