#define l92_width 14
#define l92_height 16
static char l92_bits[] = {
  0x00, 0x00, 0x00, 0x00, 0x00, 0x00, 0x1E, 0x0F, 0xA1, 0x10, 0xA1, 0x10, 
  0x21, 0x08, 0x3E, 0x04, 0x20, 0x02, 0x20, 0x01, 0x90, 0x00, 0x8E, 0x1F, 
  0x00, 0x00, 0x00, 0x00, 0x00, 0x00, 0x00, 0x00, };
