#define l93_width 14
#define l93_height 16
static char l93_bits[] = {
  0x00, 0x00, 0x00, 0x00, 0x00, 0x00, 0x1E, 0x0F, 0xA1, 0x10, 0x21, 0x10, 
  0x21, 0x10, 0x3E, 0x0E, 0x20, 0x10, 0x20, 0x10, 0x90, 0x10, 0x0E, 0x0F, 
  0x00, 0x00, 0x00, 0x00, 0x00, 0x00, 0x00, 0x00, };
