#define l94_width 14
#define l94_height 16
static char l94_bits[] = {
  0x00, 0x00, 0x00, 0x00, 0x00, 0x00, 0x1E, 0x08, 0x21, 0x0C, 0x21, 0x0A, 
  0x21, 0x09, 0xBE, 0x08, 0xA0, 0x1F, 0x20, 0x08, 0x10, 0x08, 0x0E, 0x08, 
  0x00, 0x00, 0x00, 0x00, 0x00, 0x00, 0x00, 0x00, };
