#define l95_width 14
#define l95_height 16
static char l95_bits[] = {
  0x00, 0x00, 0x00, 0x00, 0x00, 0x00, 0x9E, 0x1F, 0xA1, 0x00, 0xA1, 0x00, 
  0xA1, 0x0F, 0x3E, 0x10, 0x20, 0x10, 0x20, 0x10, 0x90, 0x10, 0x0E, 0x0F, 
  0x00, 0x00, 0x00, 0x00, 0x00, 0x00, 0x00, 0x00, };
