#define l96_width 14
#define l96_height 16
static char l96_bits[] = {
  0x00, 0x00, 0x00, 0x00, 0x00, 0x00, 0x1E, 0x0F, 0xA1, 0x00, 0xA1, 0x00, 
  0xA1, 0x0F, 0xBE, 0x10, 0xA0, 0x10, 0xA0, 0x10, 0x90, 0x10, 0x0E, 0x0F, 
  0x00, 0x00, 0x00, 0x00, 0x00, 0x00, 0x00, 0x00, };
