#define l97_width 14
#define l97_height 16
static char l97_bits[] = {
  0x00, 0x00, 0x00, 0x00, 0x00, 0x00, 0x9E, 0x1F, 0x21, 0x10, 0x21, 0x08, 
  0x21, 0x08, 0x3E, 0x04, 0x20, 0x04, 0x20, 0x02, 0x10, 0x02, 0x0E, 0x02, 
  0x00, 0x00, 0x00, 0x00, 0x00, 0x00, 0x00, 0x00, };
