#define l98_width 14
#define l98_height 16
static char l98_bits[] = {
  0x00, 0x00, 0x00, 0x00, 0x00, 0x00, 0x1E, 0x0F, 0xA1, 0x10, 0xA1, 0x10, 
  0xA1, 0x10, 0x3E, 0x0F, 0xA0, 0x10, 0xA0, 0x10, 0x90, 0x10, 0x0E, 0x0F, 
  0x00, 0x00, 0x00, 0x00, 0x00, 0x00, 0x00, 0x00, };
