#define l99_width 14
#define l99_height 16
static char l99_bits[] = {
  0x00, 0x00, 0x00, 0x00, 0x00, 0x00, 0x1E, 0x0F, 0xA1, 0x10, 0xA1, 0x10, 
  0xA1, 0x10, 0x3E, 0x1F, 0x20, 0x10, 0x20, 0x10, 0x10, 0x08, 0x0E, 0x07, 
  0x00, 0x00, 0x00, 0x00, 0x00, 0x00, 0x00, 0x00, };
